<svg xmlns="http://www.w3.org/2000/svg" width="55.275" height="45.876" viewBox="0 0 55.275 45.876">
  <path id="Union_9" data-name="Union 9" d="M19.368,42.255a20.773,20.773,0,0,1-3.4-3.478,22.949,22.949,0,0,1-2.922-3.8c-.784-.935-1.766-2.021-3.082-3.34C4.259,25.915,0,24.3,0,23.033s4.259-2.8,9.966-8.55a42.13,42.13,0,0,0,2.99-3.309,22.961,22.961,0,0,1,2.414-3.3,16.671,16.671,0,0,1,4-3.856C24.308.4,32.03,0,32.03,0V.127c.148,0,.3,0,.447,0a22.875,22.875,0,0,1,0,45.751c-.149,0-.3,0-.447,0v.007S23.648,45.815,19.368,42.255Z" transform="translate(55.275 45.876) rotate(180)" fill="#fca31b"/>
</svg>
